<?xml version="1.0" standalone="no"?><!DOCTYPE svg PUBLIC "-//W3C//DTD SVG 1.1//EN" "http://www.w3.org/Graphics/SVG/1.1/DTD/svg11.dtd"><svg t="1756215562113" class="icon" viewBox="0 0 1024 1024" version="1.1" xmlns="http://www.w3.org/2000/svg" p-id="2711" xmlns:xlink="http://www.w3.org/1999/xlink" width="200" height="200"><path d="M556.8 512l262.4-262.4c12.8-12.8 12.8-32 0-44.8s-32-12.8-44.8 0L512 467.2 249.6 198.4c-12.8-6.4-38.4-6.4-51.2 0s-6.4 38.4 0 51.2L467.2 512l-262.4 262.4c-12.8 12.8-12.8 32 0 44.8 0 12.8 12.8 12.8 19.2 12.8s19.2 0 25.6-6.4L512 556.8l262.4 262.4c6.4 6.4 12.8 6.4 25.6 6.4s19.2 0 25.6-6.4c12.8-12.8 12.8-32 0-44.8L556.8 512z" p-id="2712" fill="#2c2c2c"></path></svg>