<?xml version="1.0" standalone="no"?><!DOCTYPE svg PUBLIC "-//W3C//DTD SVG 1.1//EN" "http://www.w3.org/Graphics/SVG/1.1/DTD/svg11.dtd"><svg t="1756630450426" class="icon" viewBox="0 0 1027 1024" version="1.1" xmlns="http://www.w3.org/2000/svg" p-id="11938" xmlns:xlink="http://www.w3.org/1999/xlink" width="200.5859375" height="200"><path d="M983.818467 313.316428a511.938785 511.938785 0 1 0 40.140818 198.697048 508.641504 508.641504 0 0 0-40.140818-198.697048z m-248.729709 421.478586a31.825934 31.825934 0 0 1-44.8717 1.29024L510.013459 555.881655 329.80986 735.941894A32.686094 32.686094 0 0 1 283.647919 689.779954l180.2036-180.060239-180.2036-180.203599a32.686094 32.686094 0 0 1 46.161941-46.161941l180.203599 180.2036 180.203599-180.34696a32.686094 32.686094 0 0 1 46.16194 46.16194L556.175399 509.719715l180.203599 180.203599a31.825934 31.825934 0 0 1-1.29024 44.8717z m0 0" fill="" p-id="11939"></path></svg>