<?xml version="1.0" standalone="no"?><!DOCTYPE svg PUBLIC "-//W3C//DTD SVG 1.1//EN" "http://www.w3.org/Graphics/SVG/1.1/DTD/svg11.dtd"><svg t="1756560274225" class="icon" viewBox="0 0 1024 1024" version="1.1" xmlns="http://www.w3.org/2000/svg" p-id="10066" xmlns:xlink="http://www.w3.org/1999/xlink" width="200" height="200"><path d="M873.973075 138.251072v746.678666c0 29.375633-11.96785 57.471282-33.279584 78.207023a115.454557 115.454557 0 0 1-80.446994 32.447594h-511.9936c-30.207622 0-59.135261-11.711854-80.510994-32.447594a109.054637 109.054637 0 0 1-33.279584-78.207023V138.251072h739.510756z m-85.310933 83.006962H219.773253v663.671704c0 7.295909 3.007962 14.335821 8.319896 19.519756 5.311934 5.183935 12.543843 8.127898 20.159748 8.127899h511.9936a28.79964 28.79964 0 0 0 26.239672-17.023787 27.327658 27.327658 0 0 0 2.175973-10.623868V221.258034z m-383.9952 580.728741a42.047474 42.047474 0 0 1-42.687467-41.471481V428.679442c0-22.911714 19.135761-41.471482 42.687467-41.471482 23.551706 0 42.687466 18.559768 42.687466 41.471482v331.835852a42.047474 42.047474 0 0 1-42.687466 41.471481z m199.101511 0a42.047474 42.047474 0 0 1-42.687467-41.471481V428.679442c0-22.911714 19.135761-41.471482 42.687467-41.471482 23.551706 0 42.687466 18.559768 42.687466 41.471482v331.835852a42.047474 42.047474 0 0 1-42.687466 41.471481z m355.579555-580.728741H49.087386a42.111474 42.111474 0 0 1-42.623467-41.535481c0-22.847714 19.071762-41.471482 42.623467-41.471481H959.348008c23.551706 0 42.623467 18.559768 42.623467 41.471481a42.111474 42.111474 0 0 1-42.623467 41.535481z m-331.387858-138.238272l7.103912 55.23131H373.371333l7.103911-55.295309h247.484906zM652.983838 0.0128H355.451557a56.319296 56.319296 0 0 0-56.895289 48.383395l-21.887726 172.79784h455.098311l-22.143723-172.79784a56.319296 56.319296 0 0 0-56.959288-48.383395h0.319996z" fill="#2c2c2c" p-id="10067"></path></svg>