<?xml version="1.0" standalone="no"?><!DOCTYPE svg PUBLIC "-//W3C//DTD SVG 1.1//EN" "http://www.w3.org/Graphics/SVG/1.1/DTD/svg11.dtd"><svg t="1756215484236" class="icon" viewBox="0 0 1024 1024" version="1.1" xmlns="http://www.w3.org/2000/svg" p-id="5976" xmlns:xlink="http://www.w3.org/1999/xlink" width="200" height="200"><path d="M800 128h-576C172.8 128 128 172.8 128 224v576c0 51.2 44.8 96 96 96h576c51.2 0 96-44.8 96-96v-576c0-51.2-44.8-96-96-96z m32 672c0 19.2-12.8 32-32 32h-576c-19.2 0-32-12.8-32-32v-576c0-19.2 12.8-32 32-32h576c19.2 0 32 12.8 32 32v576z" fill="#2c2c2c" p-id="5977"></path></svg>