<?xml version="1.0" standalone="no"?><!DOCTYPE svg PUBLIC "-//W3C//DTD SVG 1.1//EN" "http://www.w3.org/Graphics/SVG/1.1/DTD/svg11.dtd"><svg t="1756188095643" class="icon" viewBox="0 0 1024 1024" version="1.1" xmlns="http://www.w3.org/2000/svg" p-id="36827" xmlns:xlink="http://www.w3.org/1999/xlink" width="200" height="200"><path d="M820.4 887h-620c-63.4 0-115-51.6-115-115V252c0-63.4 51.6-115 115-115h620c63.4 0 115 51.6 115 115v520c0 63.4-51.6 115-115 115z m-620-700c-35.8 0-65 29.2-65 65v520c0 35.8 29.2 65 65 65h620c35.8 0 65-29.2 65-65V252c0-35.8-29.2-65-65-65h-620z" fill="#333333" p-id="36828"></path><path d="M512.8 573.5c-26.9 0-53.8-10.2-74.2-30.7L226.8 331.1c-9.8-9.8-9.8-25.6 0-35.4 9.8-9.8 25.6-9.8 35.4 0L474 507.4c21.4 21.4 56.3 21.4 77.7 0l206.8-206.8c9.8-9.8 25.6-9.8 35.4 0 9.8 9.8 9.8 25.6 0 35.4L587.1 542.8c-20.5 20.4-47.4 30.7-74.3 30.7z" fill="#333333" p-id="36829"></path></svg>