<?xml version="1.0" standalone="no"?><!DOCTYPE svg PUBLIC "-//W3C//DTD SVG 1.1//EN" "http://www.w3.org/Graphics/SVG/1.1/DTD/svg11.dtd"><svg t="1756187684255" class="icon" viewBox="0 0 1024 1024" version="1.1" xmlns="http://www.w3.org/2000/svg" p-id="6857" xmlns:xlink="http://www.w3.org/1999/xlink" width="200" height="200"><path d="M490.666667 554.666667c34.133333 0 64 29.866667 64 64v85.333333c0 34.133333-29.866667 64-64 64h-213.333334c-34.133333 0-64-29.866667-64-64v-85.333333c0-34.133333 29.866667-64 64-64z m298.666666-341.333334c34.133333 0 64 29.866667 64 64v426.666667c0 34.133333-29.866667 64-64 64h-128c-12.8 0-21.333333-8.533333-21.333333-21.333333s8.533333-21.333333 21.333333-21.333334h128c12.8 0 21.333333-8.533333 21.333334-21.333333v-426.666667c0-12.8-8.533333-21.333333-21.333334-21.333333h-512c-12.8 0-21.333333 8.533333-21.333333 21.333333v170.666667c0 12.8-8.533333 21.333333-21.333333 21.333333s-21.333333-8.533333-21.333334-21.333333v-170.666667C213.333333 243.2 243.2 213.333333 277.333333 213.333333z m-298.666666 384h-213.333334c-12.8 0-21.333333 8.533333-21.333333 21.333334v85.333333c0 12.8 8.533333 21.333333 21.333333 21.333333h213.333334c12.8 0 21.333333-8.533333 21.333333-21.333333v-85.333333c0-12.8-8.533333-21.333333-21.333333-21.333334z" p-id="6858"></path></svg>