<?xml version="1.0" standalone="no"?><!DOCTYPE svg PUBLIC "-//W3C//DTD SVG 1.1//EN" "http://www.w3.org/Graphics/SVG/1.1/DTD/svg11.dtd"><svg t="1756188418356" class="icon" viewBox="0 0 1024 1024" version="1.1" xmlns="http://www.w3.org/2000/svg" p-id="51638" xmlns:xlink="http://www.w3.org/1999/xlink" width="200" height="200"><path d="M781.312 738.665412l105.411765 168.05647a42.767059 42.767059 0 0 1-13.854118 59.211294 43.369412 43.369412 0 0 1-59.632941-13.793882l-103.785412-165.406118a420.984471 420.984471 0 0 1-197.872941 49.212236C279.311059 835.945412 90.352941 648.432941 90.352941 418.032941S279.311059 0 511.578353 0c232.267294 0 421.225412 187.512471 421.225412 418.032941 0 128.662588-59.030588 243.892706-151.491765 320.632471zM511.578353 85.895529C327.077647 85.895529 176.971294 234.917647 176.971294 418.032941s150.106353 332.077176 334.607059 332.077177c184.560941 0 334.667294-148.961882 334.667294-332.077177s-150.106353-332.077176-334.667294-332.077176z" fill="#555555" p-id="51639"></path></svg>