<?xml version="1.0" standalone="no"?><!DOCTYPE svg PUBLIC "-//W3C//DTD SVG 1.1//EN" "http://www.w3.org/Graphics/SVG/1.1/DTD/svg11.dtd"><svg t="1756187480636" class="icon" viewBox="0 0 1024 1024" version="1.1" xmlns="http://www.w3.org/2000/svg" p-id="4949" xmlns:xlink="http://www.w3.org/1999/xlink" width="200" height="200"><path d="M699.072 124.032a64 64 0 0 1 55.424 32L941.44 480a64 64 0 0 1 0 64l-187.008 323.968a64 64 0 0 1-55.424 32H324.928a64 64 0 0 1-55.424-32L82.56 544a64 64 0 0 1 0-64L269.44 156.032a64 64 0 0 1 55.424-32h374.144z m0 64H324.928L137.92 512l187.008 323.968h374.144L886.08 512l-187.008-323.968zM512 352a160 160 0 1 1 0 320 160 160 0 0 1 0-320z m0 64a96 96 0 1 0 0 192 96 96 0 0 0 0-192z" p-id="4950"></path></svg>